<svg data-name="Layer 1" xmlns="http://www.w3.org/2000/svg" viewBox="0 0 512 512"><g data-name="06-speed"><circle cx="256" cy="330.67" r="21.33"/><path d="M256 53.33C114.59 53.35 0 168 0 309.41A256 256 0 0 0 41.41 449a21.34 21.34 0 0 0 17.87 9.69h393.44a21.31 21.31 0 0 0 17.86-9.69c77.11-118.53 43.53-277.13-75-354.23A256 256 0 0 0 256 53.33Zm55.42 309.34a64 64 0 0 1-110.84-64C218.22 268.1 320 219.82 320 219.82s9.07 112.29-8.58 142.85Zm151.65 32h-23.31a201.3 201.3 0 0 0 17.77-64h-30.86V288h30.87a200.83 200.83 0 0 0-16.39-60.93l-26.68 15.4-21.33-36.94 26.63-15.38a204.45 204.45 0 0 0-44.57-44.59l-15.38 26.64-36.95-21.34 15.41-26.68a200.73 200.73 0 0 0-60.95-16.38v30.87h-42.66V107.8a201.1 201.1 0 0 0-60.93 16.38l15.4 26.68-36.95 21.34-15.38-26.64a204.27 204.27 0 0 0-44.58 44.59l26.63 15.38-21.33 36.94-26.68-15.4A200.83 200.83 0 0 0 54.46 288h30.87v42.67H54.47a201.3 201.3 0 0 0 17.77 64H48.93C1.75 280.31 56.2 149.35 170.56 102.16s245.32 7.27 292.5 121.63a224 224 0 0 1 0 170.88Z"/></g></svg>