<svg xmlns="http://www.w3.org/2000/svg" viewBox="0 0 512 512" style="enable-background:new 0 0 512 512" xml:space="preserve"><path d="M390 211v-15c0-8.291-6.709-15-15-15h-23.789l-25.605-25.605A14.99 14.99 0 0 0 315 151h-15v-30h15c8.291 0 15-6.709 15-15s-6.709-15-15-15H165c-8.291 0-15 6.709-15 15s6.709 15 15 15h15v30h-15a14.986 14.986 0 0 0-10.605 4.395l-30 30A14.986 14.986 0 0 0 120 196v150c0 3.984 1.582 7.793 4.395 10.605l60 60A14.986 14.986 0 0 0 195 421h150a15.006 15.006 0 0 0 13.418-8.291l30-60A15.01 15.01 0 0 0 390 346h32V211h-32zm-91.582 81.709-30 60c-3.686 7.351-12.64 10.427-20.127 6.709-7.412-3.706-10.415-12.715-6.709-20.127L260.728 301H225c-11.106 0-18.418-11.741-13.418-21.709l30-60c3.706-7.397 12.715-10.4 20.127-6.709 7.412 3.706 10.415 12.715 6.709 20.127L249.272 271H285c11.106 0 18.418 11.741 13.418 21.709zM75 181c-8.291 0-15 6.709-15 15v60H30v-60c0-8.291-6.709-15-15-15s-15 6.709-15 15v150c0 8.291 6.709 15 15 15s15-6.709 15-15v-60h30v60c0 8.291 6.709 15 15 15h15V181H75zm407 0h-15c-8.284 0-15 6.716-15 15v180c0 8.284 6.716 15 15 15h15c16.569 0 30-13.431 30-30V211c0-16.569-13.431-30-30-30z"/></svg>