<svg xmlns="http://www.w3.org/2000/svg" viewBox="0 0 512 512" style="enable-background:new 0 0 512 512" xml:space="preserve"><path d="M435.199 204.111 307.904 76.816c-3.684-3.684-7.967-6.497-12.537-8.674l-.222.222c-17.305-8.152-37.703-4.61-50.77 8.351-.033.033-.071.053-.104.086l-140.006 140.02-.015.015c-17.525 17.525-17.654 45.949 0 63.633L231.531 407.75c16.324 16.281 46.217 17.459 63.647-.015l140.006-139.991c16.689-16.704 16.639-47.001.015-63.633zm72.407-72.436-42.422-42.422c-5.859-5.859-15.352-5.859-21.211 0l-40.606 40.603L467 193.489l40.606-40.603c5.859-5.859 5.859-15.352 0-21.211zm-84.86-84.859L380.324 4.394c-5.859-5.859-15.352-5.859-21.211 0l-40.605 40.604 63.635 63.635 40.603-40.606c5.859-5.859 5.859-15.352 0-21.211zM146.672 365.328c-17.549-17.549-46.084-17.549-63.633 0L4.392 443.961c-5.856 5.855-5.856 15.355 0 21.21l42.438 42.437c5.856 5.856 15.355 5.856 21.211 0l46.816-46.831 10.605 10.605c17.563 17.563 46.113 17.534 63.647 0l31.816-31.816-74.253-74.238z"/></svg>